<svg width="40" height="40" viewBox="0 0 40 40" xmlns="http://www.w3.org/2000/svg">
  <!-- RAM -->
  <rect x="4" y="10" width="20" height="12" rx="2" fill="#4CAF50"></rect>
  
  <!-- RAM blocks -->
  <rect x="7" y="12" width="4" height="4" fill="#2E3A59"></rect>
  <rect x="12" y="12" width="4" height="4" fill="#2E3A59"></rect>
  <rect x="17" y="12" width="4" height="4" fill="#2E3A59"></rect>

  <!-- Pins -->
  <rect x="7" y="22" width="2" height="2" fill="#FFC107"></rect>
  <rect x="10" y="22" width="2" height="2" fill="#FFC107"></rect>
  <rect x="13" y="22" width="2" height="2" fill="#FFC107"></rect>
  <rect x="16" y="22" width="2" height="2" fill="#FFC107"></rect>

  <!-- Leak drop -->
  <path d="M14 26 C12 30, 16 30, 14 34 C18 32, 18 28, 14 26 Z" fill="#2196F3"></path>

  <!-- Magnifying glass -->
  <circle cx="26" cy="18" r="7" fill="#E3F2FD" stroke="#1565C0" stroke-width="2"></circle>
  <line x1="30" y1="23" x2="35" y2="28" stroke="#1565C0" stroke-width="2"></line>

  <!-- Warning sign -->
  <polygon points="26,14 29,20 23,20" fill="#FFC107"></polygon>
  <rect x="25.5" y="16" width="1" height="3" fill="#000"></rect>
  <rect x="25.5" y="20.5" width="1" height="1" fill="#000"></rect>
</svg>